<svg width="80" height="75" viewBox="0 0 80 75" fill="none" xmlns="http://www.w3.org/2000/svg">
<path fill-rule="evenodd" clip-rule="evenodd" d="M16.3413 0H10C4.47715 0 0 4.47715 0 10V17.896L16.3413 0ZM0 26.9255V65C0 65.412 0.0249141 65.8182 0.0733178 66.2171L0.0733178 64.579L59.0422 0H45.9735L0.0733177 50.267L0.0733178 41.2375L37.7284 0H24.5864L0 26.9255ZM67.2873 0L2.20904 71.2696C4.04205 73.5445 6.85105 75 10 75H11.8714L77.3833 3.25552C75.5548 1.25491 72.9239 0 70 0H67.2873ZM79.9844 9.43644L20.1165 75H33.1852L80 23.7314V10C80 9.81088 79.9948 9.62298 79.9844 9.43644ZM80 32.7609L41.4303 75H54.499L80 47.0729V32.7609ZM80 56.1024L62.7441 75H70C75.5229 75 80 70.5229 80 65V56.1024Z" fill="#4AB6E8"/>
</svg>
